<svg
   xmlns:dc="http://purl.org/dc/elements/1.1/"
   xmlns:cc="http://creativecommons.org/ns#"
   xmlns:rdf="http://www.w3.org/1999/02/22-rdf-syntax-ns#"
   xmlns:svg="http://www.w3.org/2000/svg"
   xmlns="http://www.w3.org/2000/svg"
   viewBox="709 265 1313 1518"
   xml:space="preserve"
   id="svg2"
   version="1.1"><metadata
     id="metadata8"><rdf:RDF><cc:Work
         rdf:about=""><dc:format>image/svg+xml</dc:format><dc:type
           rdf:resource="http://purl.org/dc/dcmitype/StillImage" /></cc:Work></rdf:RDF></metadata><defs
     id="defs6"><linearGradient
       id="linearGradient36"
       spreadMethod="pad"
       gradientTransform="matrix(-560.16339,-332.87445,-332.87445,560.16339,1003.8163,1078.8397)"
       gradientUnits="userSpaceOnUse"
       y2="0"
       x2="1"
       y1="0"
       x1="0"><stop
         id="stop32"
         offset="0"
         style="stop-opacity:1;stop-color:#ffffff" /><stop
         id="stop34"
         offset="1"
         style="stop-opacity:1;stop-color:#1d1d1b" /></linearGradient><linearGradient
       id="linearGradient60"
       spreadMethod="pad"
       gradientTransform="matrix(472.46558,250.55157,250.55157,-472.46558,1035.5367,455.08221)"
       gradientUnits="userSpaceOnUse"
       y2="0"
       x2="1"
       y1="0"
       x1="0"><stop
         id="stop56"
         offset="0"
         style="stop-opacity:1;stop-color:#ffffff" /><stop
         id="stop58"
         offset="1"
         style="stop-opacity:1;stop-color:#1d1d1b" /></linearGradient></defs><g
     transform="matrix(1.3333333,0,0,-1.3333333,0,2048)"
     id="g10"><g
       transform="translate(1496.9915,494.9121)"
       id="g12"><path
         id="path14"
         style="fill:#008558;fill-opacity:1;fill-rule:nonzero;stroke:none"
         d="M 0,0 -472.991,-273.093 -945.988,0 V 546.154 L -472.991,819.258 0,546.154 Z M -472.991,842.134 -965.802,557.589 V -11.44 l 492.811,-284.518 492.81,284.518 v 569.029 z" /></g><g
       transform="translate(1477.1832,506.3523)"
       id="g16"><path
         id="path18"
         style="fill:#008558;fill-opacity:1;fill-rule:nonzero;stroke:none"
         d="M 0,0 -453.183,-261.652 -906.366,0 V 523.279 L -453.183,784.921 0,523.279 Z" /></g><g
       id="g20"><g
         id="g22"><g
           id="g28"><g
             id="g30"><path
               id="path38"
               style="fill:url(#linearGradient36);stroke:none"
               d="m 729.814,1009.335 304.326,181.454 V 1007.94 L 894.563,919.987 Z" /></g></g></g></g><g
       transform="translate(1034.1398,1007.9399)"
       id="g40"><path
         id="path42"
         style="fill:#cccccc;fill-opacity:1;fill-rule:nonzero;stroke:none"
         d="M 0,0 284.754,-141.527 V 39.727 L 0,182.849 Z" /></g><g
       id="g44"><g
         id="g46"><g
           id="g52"><g
             id="g54"><path
               id="path62"
               style="fill:url(#linearGradient60);stroke:none"
               d="M 1318.192,526.675 1013.891,345.227 V 528.07 l 139.582,87.931 z" /></g></g></g></g><g
       transform="translate(1013.8914,528.0697)"
       id="g64"><path
         id="path66"
         style="fill:#cccccc;fill-opacity:1;fill-rule:nonzero;stroke:none"
         d="M 0,0 -284.758,141.528 V -39.727 L 0,-182.843 Z" /></g><g
       transform="translate(1024.3779,852.9534)"
       id="g68"><path
         id="path70"
         style="fill:#f2f2f2;fill-opacity:1;fill-rule:nonzero;stroke:none"
         d="M 0,0 V 0.042 L -294.564,156.381 V -19.51 L -0.713,-169.897 v -0.047 l 294.527,-156.335 v 175.891 z" /></g></g></svg>