<svg
   viewBox="207 20 119 182"
   xmlns:inkscape="http://www.inkscape.org/namespaces/inkscape"
   xmlns:sodipodi="http://sodipodi.sourceforge.net/DTD/sodipodi-0.dtd"
   xmlns="http://www.w3.org/2000/svg"
   xmlns:svg="http://www.w3.org/2000/svg">
  <g
     id="g8"
     inkscape:groupmode="layer"
     inkscape:label="ink_ext_XXXXXX"
     transform="matrix(1.3333333,0,0,-1.3333333,0,362.02667)">
    <g
       id="g10"
       transform="scale(0.1)">
      <path
         d="m 1616.31,1666.28 h 24.51 c 4.97,-103.8 41.57,-189.32 109.79,-256.59 66.78,-66.51 143.49,-99.75 230.2,-99.75 66.85,0 121.13,21.48 163.07,64.47 41.92,42.95 62.91,94.42 62.91,154.48 0,63.21 -20.24,112.28 -60.73,147.13 -39.13,34.03 -116.25,72.57 -231.34,115.55 -92.34,34.88 -158.11,63.66 -197.19,86.38 -45.45,26.75 -80.98,62.81 -106.55,108.25 -27.73,46.21 -41.6,98.06 -41.6,155.69 0,64.03 18.85,126.88 56.5,188.53 -8.52,-31.65 -12.78,-59.22 -12.78,-82.71 0,-63.25 13.13,-118.8 39.45,-166.68 26.98,-49.47 60.35,-86.76 100.17,-111.88 39.82,-25.96 106.24,-55.51 199.32,-88.77 121.49,-42.18 209.26,-88.81 263.26,-139.86 51.88,-49.5 77.85,-116 77.85,-199.48 0,-81.88 -27.08,-156.1 -81.06,-222.6 -54.71,-67.29 -136.43,-100.96 -245.15,-100.96 -44.03,0 -105.15,9.32 -183.32,27.99 -68.21,16.21 -119.35,24.73 -153.49,25.55 l -7.43,9.74 c 0.68,13.75 1.04,31.64 1.04,53.5 0,25.94 -2.12,66.06 -6.38,120.42 -3.55,54.3 -5.34,94.85 -5.34,121.6 0,34.87 1.44,64.89 4.29,90"
         style="fill:#00e69d;fill-opacity:1;fill-rule:nonzero;stroke:none"
         id="path66" />
      <path
         d="m 2368.83,2174.72 h -22.42 c -0.71,94.05 -33.41,163.78 -98.08,209.21 -63.22,44.57 -139.97,66.85 -230.17,66.85 -71.83,0 -130.79,-17.4 -176.98,-52.27 -46.87,-34.85 -70.33,-76.6 -70.33,-125.28 0,-51.92 18.47,-92.84 55.42,-122.81 38.37,-32.46 114.06,-70.99 227,-115.62 105.15,-41.33 178.74,-75 220.69,-100.9 44.72,-28.41 82.01,-68.94 111.91,-121.66 29.81,-54.31 44.72,-114.73 44.72,-181.21 0,-101.36 -32.66,-180.81 -98.08,-238.36 24.18,38.08 36.32,91.59 36.32,160.52 0,64.85 -13.17,122.46 -39.44,172.74 -27.72,51.06 -61.86,91.59 -102.35,121.61 -41.24,30.78 -108.38,63.64 -201.5,98.5 -139.95,52.71 -231.23,97.69 -273.9,134.99 -42.62,38.15 -63.95,97.35 -63.95,177.61 0,92.42 32.7,165.02 98.09,217.7 65.36,51.12 158.1,76.63 278.18,76.63 81.68,0 181.58,-16.24 299.5,-48.67 v -8.5 l 2.15,-46.23 c 0,-24.3 0.72,-53.51 2.1,-87.55 2.17,-41.32 3.2,-77.82 3.2,-109.48 0,-21.07 -0.71,-47.03 -2.08,-77.82"
         style="fill:#006646;fill-opacity:1;fill-rule:nonzero;stroke:none"
         id="path68" />
    </g>
  </g>
</svg>
